<svg xmlns="http://www.w3.org/2000/svg" xmlns:xlink="http://www.w3.org/1999/xlink" version="1.1" id="Layer_1" x="0px" y="0px" viewBox="0 0 512 512" style="enable-background:new 0 0 512 512;" xml:space="preserve">
<circle style="fill: rgb(214, 40, 34);" cx="255.996" cy="255.996" r="255.996" id="id_101"></circle>
<path style="fill: rgb(214, 40, 34);" d="M512,255.999c0-27.891-4.477-54.733-12.724-79.867l-57.736-57.604  c-0.664-0.572-1.332-1.134-2.007-1.686c-1.349-1.104-2.718-2.169-4.107-3.192c-0.695-0.512-1.394-1.014-2.098-1.505  c-2.817-1.964-5.711-3.762-8.674-5.383c-0.741-0.405-1.485-0.799-2.234-1.183c-1.497-0.766-3.011-1.488-4.54-2.165  c-3.823-1.691-7.74-3.095-11.736-4.195c-36.915-10.167-66.688-1.871-89.684,12.93c-3,1.931-5.884,3.972-8.654,6.097  c-0.924,0.708-1.834,1.426-2.731,2.152c-11.672,9.441-21.201,20.295-28.65,30.405c-0.574,0.777-1.134,1.551-1.682,2.319  c-3.839,5.375-7.077,10.485-9.725,14.996c-0.085,0.144-0.163,0.282-0.247,0.425c0,0-45.917-45.935-46.924-46.907  c-16.692-17.318-39.018-30.305-67.301-26.115c-13.529-1.67-28.41-0.785-44.684,3.697c-79.34,21.853-128.159,163.646-7.517,282.613  l128.507,128.507c9.568,1.085,19.29,1.661,29.147,1.661C397.385,512,512,397.385,512,255.999z" id="id_102"></path>
<path style="fill: rgb(255, 255, 255);" d="M406.145,99.221c-102.718-28.29-150.141,86.374-150.141,86.374S208.581,70.931,105.862,99.221  C3.586,127.389-47.991,354.876,248.816,475.837c0,0,6.568,2.467,7.188,2.464c0.62,0.003,7.188-2.464,7.188-2.464  C559.998,354.876,508.421,127.389,406.145,99.221z" id="id_103"></path>
<path style="fill: rgb(255, 255, 255);" d="M263.191,475.837C559.998,354.876,508.421,127.389,406.145,99.22  c-102.718-28.29-150.141,86.374-150.141,86.374l-0.003-0.008v292.714c0.001,0,0.003,0.001,0.003,0.001  C256.622,478.304,263.191,475.837,263.191,475.837z" id="id_104"></path>
<path style="fill:#FFFFFF;" d="M450.756,249.377l-15.768-3.311c10.705-50.976-15.044-91.444-45.04-99.705l4.278-15.534  c19.811,5.456,37.311,20.93,48.01,42.454C453.343,195.623,456.369,222.649,450.756,249.377z" id="id_105"></path>
<path style="fill: rgb(255, 255, 255);" d="M135.578,99.221c82.389-28.29,120.426,86.374,120.426,86.374l0,0v292.706l0,0  c-0.496,0.003-5.766-2.464-5.766-2.464C12.175,354.876,53.544,127.389,135.578,99.221z" id="id_106"></path>
<g>
</g>
<g>
</g>
<g>
</g>
<g>
</g>
<g>
</g>
<g>
</g>
<g>
</g>
<g>
</g>
<g>
</g>
<g>
</g>
<g>
</g>
<g>
</g>
<g>
</g>
<g>
</g>
<g>
</g>
</svg>