<?xml version="1.0" encoding="UTF-8" standalone="no"?> <svg xmlns="http://www.w3.org/2000/svg" xmlns:xlink="http://www.w3.org/1999/xlink" viewBox="0 0 64 64"><defs><style>.cls-1{fill:url(#linear-gradient);}</style><linearGradient id="linear-gradient" x1="3.4" y1="32" x2="60.6" y2="32" gradientUnits="userSpaceOnUse"><stop offset="0" stop-color="#5bb4f6"/><stop offset="0.61" stop-color="#2191e5"/><stop offset="1" stop-color="#007edb"/></linearGradient></defs><g id="Layer_53" data-name="Layer 53"><path class="cls-1" d="M32,3.4h0A28.59,28.59,0,0,0,3.4,32h0A28.59,28.59,0,0,0,32,60.6h0A28.59,28.59,0,0,0,60.6,32h0A28.59,28.59,0,0,0,32,3.4Zm9.44,10.67L39,22.74a.64.64,0,0,0,.07.47l0,.1h.1a.58.58,0,0,0,.43.2h9.56a2.16,2.16,0,0,1,2.16,2.16V45.42a2.16,2.16,0,0,1-2.16,2.16h-12a35.91,35.91,0,0,1-11.8-2V25.48A13.49,13.49,0,0,0,33.22,17l1.54-4.93A3.49,3.49,0,0,1,41.44,14.07ZM13.3,47.58V23.51H24.13V47.58Z"/></g></svg>